# xmcd CD database file
#
# Track frame offsets:
#	150
#	16347
#	37255
#	59300
#	75210
#	96310
#	117065
#	141470
#	160235
#	181025
#	204647
#	218717
#
# Disc length: 3186 seconds
#
# Revision: 3
# Processed by: cddbd v1.5PL3 Copyright (c) Steve Scherf et al.
# Submitted via: CDex 1.51
#
DISCID=9f0c700c
DTITLE=The Rolling Stones - Steel Wheels
DYEAR=1900
DGENRE=
TTITLE0=Sad Sad Sad
TTITLE1=Mixed Emotions
TTITLE2=Terrifying
TTITLE3=Hold On To Your Hat
TTITLE4=Hearts For Sale
TTITLE5=Blinded By Love
TTITLE6=Rock and a Hard Place
TTITLE7=Can't Be Seen
TTITLE8=Almost Hear You Sigh
TTITLE9=Continental Drift
TTITLE10=Break the Spell
TTITLE11=Slipping Away
EXTD=1989 Rolling Stones - CBS CK 45333
EXTT0=
EXTT1=
EXTT2=
EXTT3=
EXTT4=
EXTT5=
EXTT6=
EXTT7=
EXTT8=
EXTT9=
EXTT10=
EXTT11=
PLAYORDER=
